<svg width="38" height="27" fill="none" xmlns="http://www.w3.org/2000/svg"><path d="m33.39 4.561.012-.015.011-.015L36.437.75H24.352L19.58 6.477a154.25 154.25 0 0 1-3.985 4.688l-.784.889-.08.09-.544.615-.342.392.094.16c.217.358.56.86 1.009 1.484.895 1.24 2.177 2.903 3.631 4.726l5.767 6.728H36.187l-.718-.718-.036-.036-.03-.04c-.528-.693-1.448-1.997-2.455-3.424-.85-1.205-1.762-2.497-2.552-3.585l-2.997-3.995-.279-.372.208-.415 1-2 .034-.067.046-.06c.311-.397 1.11-1.528 2.124-2.96a577.87 577.87 0 0 1 2.859-4.016ZM9.329 13.336l-.242-.484.383-.383.962-.962c.314-.417.87-1.097 1.486-1.849l.292-.356a91.287 91.287 0 0 0 2.178-2.736l1.21-1.815H7.375L4.6 8.451l-.01.014-.012.014c-.438.53-.879 1.057-1.301 1.563-.51.61-.991 1.186-1.407 1.694-.379.461-.69.85-.907 1.139l-.118.16.032.051c.145.233.363.552.638.937.548.768 1.3 1.763 2.094 2.782a112.389 112.389 0 0 0 2.338 2.904c.725.867 1.286 1.493 1.552 1.73.068.06.405.273 1.171.467.741.187 1.828.343 3.329.343h3.596l-1.21-1.815a91.153 91.153 0 0 0-2.174-2.732l-.287-.35c-.642-.784-1.22-1.49-1.528-1.904l-.04-.053-.029-.06-1-2Z" stroke="#11E5B3" stroke-width="1.502"/></svg>