<svg width="40" height="41" fill="none" xmlns="http://www.w3.org/2000/svg"><path fill-rule="evenodd" clip-rule="evenodd" d="M2 1c-.787.214-1.637 1.215-2 2v25c.301.594 1.42.732 2 1 .394.182-.093.975 3 1h4v-8c.026-6.976-.142-7.52 0-8 .592-2.004 1.995-3.408 4-4 .48-.142 1.02.026 8 0h8V6c-.025-3.091-.818-2.606-1-3-.269-.582-.421-1.716-1-2H14C4.704.987 2.31.916 2 1Zm12 11c-.877.209-1.59 1.167-2 2l-1 1v24h1c.277.561.438 1.723 1 2h25c.669-.33 1.674-1.305 2-2V14c-.33-.669-1.304-.674-2-1v-1H26c-6.747-.008-11.813-.044-12 0Zm13 11v2h4v3h-4v4h-3v-4h-4v-3h4v-4h3v2Z" fill="url(#a)"/><defs><linearGradient id="a" x1="40" y1="-25.614" x2="13.272" y2="46.816" gradientUnits="userSpaceOnUse"><stop stop-color="#fff"/><stop offset="1" stop-color="#fff" stop-opacity="0"/></linearGradient></defs></svg>