<svg width="42" height="42" fill="none" xmlns="http://www.w3.org/2000/svg"><path fill-rule="evenodd" clip-rule="evenodd" d="M19 1c-4.338.547-8.899 2.91-12 6-.933.93-1.802 1.626-2 2-.155.293-.197.713 0 1 .135.197 1.662 1.071 5 3 2.386 1.379 3.862 2.977 4 3 .49.08.436-.482 1-1 1.194-1.096 3.368-1.663 5-2 .699-.145 2.25-.172 3 0 .344.079.828 0 1 0 .656.001-.006.47 2-3 3.276-5.67 3.963-5.638 4-6 .042-.408-.642-.755-1-1-.606-.414-3.323-1.736-5-2-1.173-.185-3.788-.153-5 0Zm13 4c-.197.135-1.07 1.667-3 5l-3 4c-.002.444.709.66 1 1 .839.98.68 1.441 1 2 .718 1.256 1 2.466 1 4 0 1.534-.282 2.744-1 4-.32.559-.161 1.019-1 2-.291.34-1.002.556-1 1l3 5c1.93 3.332 2.803 3.865 3 4-.295 0 .185.127 0 0 .379 0 .397.452 1 0 .358-.268 1.418-1.418 2-2 3.048-3.048 5.309-6.67 6-11 .201-1.26.201-4.74 0-6-.685-4.29-3.015-8-6-11-.929-.933-1.626-1.802-2-2-.293-.155-.713-.197-1 0ZM3 13c-.38.202-.621-.06-1 1-.778 2.175-.946 4.58-1 7-.06 2.63.203 3.593 1 6 1.125 3.398 3.27 6.705 6 9 1.052.884 1.512 1 2 1 .7 0 .26.748 3-4 1.377-2.386 2.977-4.86 3-5 .08-.492-.482-.435-1-1-1.921-2.095-2.682-5.285-2-8 .105-.418.075-.751 0-1-.162-.541.639-.604-7-5-1.894-1.09-2.47-.282-3 0Zm15 16c-.283.132-.528.195-1 1-.904 1.541-3.853 7.714-4 8-.278.54-.582.706 0 1 .444.224 2.15.784 3 1 1.789.454 2.683 1 5 1 1.877 0 2.113.154 3 0 1.277-.221 2.818-.579 4-1 1.056-.377.79-.617 1-1 .257-.47.766-.667 0-2-3.805-6.625-4.727-7.83-5-8-.34-.21-.172-.19-1 0-.822.188-3.186.182-4 0-.949-.212-.646-.166-1 0Z" fill="url(#a)"/><defs><linearGradient id="a" x1="41.151" y1="-25.803" x2="14.321" y2="46.909" gradientUnits="userSpaceOnUse"><stop stop-color="#fff"/><stop offset="1" stop-color="#fff" stop-opacity="0"/></linearGradient></defs></svg>