<svg width="32" height="23" fill="none" xmlns="http://www.w3.org/2000/svg"><path d="M3.801 4.853 1.273 1.457l4.71.08 5.704.097 4.036 4.824a503.652 503.652 0 0 1 3.056 3.684 147.26 147.26 0 0 1 1.214 1.5 5.2 5.2 0 0 1-.088.154c-.182.305-.47.733-.847 1.258a78.946 78.946 0 0 1-3.055 3.926l-4.284 5.198H1.33l.684-.87a408.324 408.324 0 0 0 4.183-5.481l2.687-3.579.296-.393-.31-.383-.895-1.106C7.492 9.768 5.615 7.29 3.8 4.853ZM20.123 6.1 19.04 4.705l2.869.072 3.916.098 2.743 3.21c.799.934 1.526 1.829 2.052 2.515a18.39 18.39 0 0 1 .677.933 15.562 15.562 0 0 1-.537.794 67.195 67.195 0 0 1-1.68 2.232 83.158 83.158 0 0 1-1.886 2.33c-.575.68-1.022 1.174-1.248 1.374-.003 0-.064.031-.235.071-.201.047-.485.09-.857.128-.74.073-1.772.112-3.069.112H19.04l1.096-1.414c1.036-1.338 2.353-3.041 2.925-3.786l1.04-1.351.295-.385-.296-.385-1.04-1.351c-.571-.744-1.893-2.454-2.936-3.8Z" stroke="#11E5B3" stroke-width="1.263"/><mask id="a" style="mask-type:alpha" maskUnits="userSpaceOnUse" x="-1" y="0" width="33" height="23"><path fill-rule="evenodd" clip-rule="evenodd" d="M3.294 5.23c1.812 2.434 3.698 4.924 4.19 5.533l.895 1.106-2.687 3.579a408.675 408.675 0 0 1-4.174 5.47L.03 22.81h11.987l4.472-5.428c2.46-2.986 4.353-5.621 4.206-5.856-.146-.236-2.166-2.699-4.488-5.474l-4.221-5.045L5.993.905 0 .804 3.294 5.23Zm16.33 1.258c1.042 1.346 2.363 3.056 2.935 3.799l1.04 1.351-1.04 1.351c-.572.744-1.887 2.446-2.924 3.784l-1.884 2.433h4.035c2.612 0 4.219-.16 4.557-.45 1.058-.915 5.681-6.828 5.656-7.236-.014-.232-1.342-1.963-2.95-3.846l-2.926-3.423-4.198-.106-4.198-.105 1.896 2.448Z" fill="#11E5B3"/></mask><g mask="url(#a)"><path fill="#11E5B3" d="M.012-17.535 51.096-6.05l-5.132 20.825L-5.12 3.29z"/></g></svg>