<svg width="41" height="42" fill="none" xmlns="http://www.w3.org/2000/svg"><path fill-rule="evenodd" clip-rule="evenodd" d="M17 1a1.385 1.385 0 0 0-1 1c-.052.213-.87 1.203-1 2v2c-.243.08-1.53-.208-2 0s.045 1 0 1-1.277-.483-2-1C9.615 5.01 9.574 5 9 5c-.71.002-1.002-.017-3 2-1.196 1.207-1.914 1.795-2 2-.153.367-.13 1.659 0 2 .048.127.477.269 1 1 .523.732 1 1.955 1 2 0 .045-.792-.471-1 0-.207.471.08 1.757 0 2H3c-2.092.343-1.54.54-2 1-.571.572-1 1.03-1 4 0 2.97.429 3.428 1 4 .46.46-.087.658 2 1h2c.132.363-.158 1.652 0 2 .158.349 1-.049 1 0s-.477 1.269-1 2c-.523.732-.952.873-1 1-.143.377-.186 1.615 0 2 .233.483 3.568 3.82 4 4 .366.153 1.66.13 2 0 .126-.048.27-.476 1-1s1.951-1 2-1c.049 0-.348.842 0 1 .348.158 1.638-.132 2 0v2c.13.795.952 1.803 1 2 .11.453.537.752 1 1 .351.188.169 0 3 0s2.649.188 3 0c.463-.248.89-.547 1-1 .048-.197.87-1.205 1-2v-2c.362-.132 1.652.158 2 0 .348-.158-.049-1 0-1s1.277.483 2 1c.723.517.838.945 1 1 .436.149 1.56.2 2 0 .504-.228 3.749-3.48 4-4 .186-.385.143-1.623 0-2-.048-.127-.477-.268-1-1-.523-.731-1-1.951-1-2 0-.049.842.349 1 0 .158-.348-.131-1.638 0-2h2c1.791-.305 2.597-.51 3-1 .406-.494 0-1.243 0-4 0-2.97-.429-3.428-1-4-.46-.46.087-.658-2-1h-2c-.132-.363.158-1.651 0-2-.158-.348-1 .049-1 0s.477-1.268 1-2c.523-.731.952-.873 1-1 .13-.341.153-1.633 0-2-.18-.433-3.518-3.766-4-4-.384-.186-1.623-.143-2 0-.126.048-.27.476-1 1s-1.955 1-2 1c-.045 0 .351-.841 0-1-.351-.159-1.638.131-2 0V4c-.34-2.046-1.187-2.565-2-3-.276-.147-.478.014-3 0-1.74-.01-2.786-.058-3 0Zm5 9c4.6.9 8.107 4.335 9 9 .229 1.195.248 2.828 0 4-.331 1.568-.184 2.723-1 4l-1 1v-1c-.403-2.397-1.7-4.185-4-5h-5c-3.87 0-4.53-.145-5 0-2.408.745-3.585 2.53-4 5v1l-1-1c-.822-1.24-.66-2.455-1-4-.257-1.167-.256-2.828 0-4 .982-4.492 3.604-7.898 8-9 1.479-.37 3.4-.313 5 0Zm-3 1c-1.57.403-3.318 1.568-4 3-.732 1.537-.778 2.42 0 4 .502 1.021 2 2.521 3 3 .861.412 1.074 0 2 0 .926 0 1.139.412 2 0 1.84-.88 3.16-2.988 3-5-.172-2.163-1.002-4.295-3-5-.795-.28-2.24-.195-3 0Z" fill="url(#a)"/><defs><linearGradient id="a" x1="40.181" y1="-25.706" x2="13.42" y2="46.948" gradientUnits="userSpaceOnUse"><stop stop-color="#fff"/><stop offset="1" stop-color="#fff" stop-opacity="0"/></linearGradient></defs></svg>