<svg width="42" height="41" fill="none" xmlns="http://www.w3.org/2000/svg"><path fill-rule="evenodd" clip-rule="evenodd" d="M4 1c-1.475.415-2.67 1.57-3 3-.121.526-.121 27.475 0 28 .254 1.103 1.012 2.538 2 3 .903.423 1.52.03 6 0h4v-1l1-2H9c-2.766 0-3.746.064-4 0-.474-.12-.894-.54-1-1-.045-.195 0-5.687 0-13C4 5.625 3.843 5.341 4 5c.195-.425.558-.815 1-1 .29-.121 1.56 0 13 0s12.71-.121 13 0c.442.185.805.575 1 1 .151.33-.002.304 0 4v4h1c.854-.249 1.514.05 2 0V9c-.001-2.257.05-4.787 0-5-.338-1.467-1.544-2.664-3-3C31.377.856 4.517.855 4 1Zm9 6c-.94.307-1.55 1.084-2 2-.266.54-1 .122-1 1s.734 1.46 1 2c.363.738.263 1.637 1 2 .54.266 1.123 0 2 0s.46.266 1 0c.737-.363 1.637-1.262 2-2 .266-.54 0-1.122 0-2 0-.878.266-.46 0-1-.362-.735-1.27-1.64-2-2-.494-.243-.299.022-1 0-.512-.016-.763-.077-1 0Zm9 7c-.098.053-1.854 1.858-4 4l-4 4-2-2c-.969-.964-1.893-1.945-2-2-.25-.127-.75-.127-1 0-.107.055-.424.43-1 1l-1 1v10h8l6-6 6-6-2-2c-1.018-1.013-1.893-1.945-2-2-.247-.125-.767-.127-1 0Zm13 1c-1.128.188-3.063 1.05-4 2v1l4 3 4 4c.773-.764 1.678-2.073 2-3 .444-1.28.578-2.724 0-4-1.017-2.244-3.59-3.401-6-3ZM23 26c-3.318 3.327-5.944 5.89-6 6-.189.374-2.056 7.692-2 8 .102.562 1.27 1 2 1 .306 0 6.802-.9 7-1 .073-.037 3.665-3.648 7-7l6-6-4-4c-2.108-2.111-3.975-3-4-3-.025 0-2.682 2.673-6 6Z" fill="url(#a)"/><defs><linearGradient id="a" x1="41.385" y1="-25.727" x2="14.817" y2="47.001" gradientUnits="userSpaceOnUse"><stop stop-color="#fff"/><stop offset="1" stop-color="#fff" stop-opacity="0"/></linearGradient></defs></svg>