<svg width="50" height="50" fill="none" xmlns="http://www.w3.org/2000/svg"><path fill-rule="evenodd" clip-rule="evenodd" d="M21 1C12.624 2.513 5.095 8.038 2 16c-.662 1.702-.916 4.686-1 6-.041.647-.167.736 0 1 .107.168.832-.103 1 0 .29.176-.111 0 3 0s3.71.176 4 0c.436-.266.817-.066 1-1 .356-1.823.829-4.224 2-6 .842-1.277 2.707-3.144 4-4 1.766-1.17 4.172-1.643 6-2 .935-.183.734-.564 1-1 .177-.29 0-.89 0-4s.177-2.71 0-3c-.413-.678-.468-1.277-2-1Zm6 0c-.168.106-.896.832-1 1-.18.293-.024-.21 0 3 .024 3.221.812 3.745 1 4 .274.371.655.683 2 1 2.892.68 4.88 1.873 7 4 1.23 1.233 2.218 2.432 3 4 .682 1.368.686 2.55 1 4 .187.86 0 1.155 0 3 0 1.829.18 2.175 0 3-.43 1.968-.922 3.33-2 5-.604.937-1.23 1.394-1 2 .147.385 4.534 4.774 5 5 .466.225.509.196 1 0 .833-.334 2.943-3.287 4-6 1.05-2.694 1.923-4.924 2-8 .072-2.887-.24-5.484-1-8C45.443 9.54 38.653 2.872 30 1c-.62-.134-1.587.026-2 0-.648-.041-.736-.167-1 0Zm-4 14c-.168.102.103.832 0 1-.182.299 0 .766 0 9v8h4v-8c0-8.234.182-8.701 0-9-.361-.593-.476-1-2-1-1.192 0-1.732-.164-2 0Zm7 11v7h2c2.069 0 2.617-.373 3-1 .181-.297 0-.129 0-6s.181-5.704 0-6c-.383-.628-.931-1-3-1h-2v7Zm-14-3c-.168.102-.897-.168-1 0-.179.293 0 1 0 5s-.179 3.707 0 4c.383.627.931 1 3 1h2V23h-2c-1.683 0-1.722-.17-2 0ZM2 26c-.168.102-.893.832-1 1-.167.264-.041.352 0 1 .094 1.473 1.212 4.066 2 6 3.043 7.464 9.094 13.335 17 15 3.1.653 6.96-.289 10-1 3.27-.765 6.318-2.06 9-4 .764-.553.878-.696 1-1 .197-.494.226-.534 0-1-.226-.466-4.614-4.854-5-5-.606-.23-1.063.395-2 1-1.687 1.087-3.022 1.568-5 2-.836.182-1.164 0-3 0-2.324 0-3.231.588-5 0-5.246-1.745-8.954-6.648-10-12-.184-.942-.528-1.763-1-2-.292-.147-1.105 0-4 0-3.064 0-2.71-.177-3 0Z" fill="url(#a)"/><defs><linearGradient id="a" x1="32.979" y1=".916" x2="19.338" y2="77.377" gradientUnits="userSpaceOnUse"><stop stop-color="#fff"/><stop offset="1" stop-color="#CF52FE"/></linearGradient></defs></svg>