<svg width="22" height="16" fill="none" xmlns="http://www.w3.org/2000/svg"><path d="M20.596.751H14.376l-2.775 3.7-.006.008-.006.007a107.401 107.401 0 0 0-2.691 3.558l-.026.036c.129.183.313.427.548.728.244.313.533.676.856 1.082l.115.146c.369.463.776.976 1.201 1.522l.009.011 2.775 3.7h5.872l-.567-.743c-.674-.882-1.587-2.076-2.294-3.071l-.006-.01-.006-.008-2-3-.342-.513.436-.435.965-.965.243-.314c.56-.72 1.687-2.17 2.703-3.615L20.596.751ZM6.871 5.111c.602-.552 1.172-1.094 1.487-1.507l.427-.853H7.122l-2.716.906L2.56 5.503a22.85 22.85 0 0 0-1.34 1.855c-.16.247-.288.458-.379.618.072.106.166.238.28.391.308.419.732.963 1.184 1.524.835 1.035 1.706 2.055 2.095 2.45.102.005.25 0 .474-.012l.288-.016A29.645 29.645 0 0 1 7 12.249h1.24c-.327-.388-.835-.869-1.367-1.357l-.252-.23a49.253 49.253 0 0 1-.603-.556c-.236-.223-.48-.464-.626-.664l-.143-.198V6.756l.143-.198c.146-.2.39-.44.626-.663.178-.169.386-.358.599-.552l.254-.232Zm-2.554 7.224a.075.075 0 0 0-.017-.003s.005.002.017.003Zm4.389-4.532Z" stroke="#11E5B3" stroke-width="1.502"/></svg>