<svg width="17" height="19" fill="none" xmlns="http://www.w3.org/2000/svg"><path d="m3.416 3.723-.008-.012L3.4 3.7 1 .5h7.76l3.845 4.806c.758 1.013 1.391 1.848 1.877 2.49l.25.328a107.692 107.692 0 0 1 .74.987c-.02.05-.046.11-.08.185-.118.256-.31.618-.568 1.062a38.802 38.802 0 0 1-2.22 3.337L8.76 18.5H.809l.621-1.242c.232-.326.54-.719.904-1.18l.369-.47a40.027 40.027 0 0 0 1.712-2.33h.001l2-3 .084-.127V8.838l-.095-.131c-.13-.179-.38-.62-.733-1.24l-.356-.624a54.904 54.904 0 0 0-1.9-3.12Z" stroke="#11E5B3"/></svg>