<svg width="23" height="24" fill="none" xmlns="http://www.w3.org/2000/svg"><path d="m4.405 4.706-.007-.01-.008-.008L1.04.5h11.692l3.852 5.777.013.02.015.019a288.65 288.65 0 0 0 3.373 4.046l.291.343c.335.396.62.732.84.996a33.055 33.055 0 0 1 .356.43c-.025.059-.06.135-.109.23-.152.297-.4.717-.743 1.241-.681 1.044-1.71 2.465-3.007 4.081L12.766 23.5H1.207l1.147-1.146.023-.024.02-.026c.413-.54.97-1.413 1.588-2.384l.174-.272c.695-1.09 1.469-2.293 2.243-3.35L9.4 12.3l.26-.347-.306-.307-.978-.978c-.193-.25-.533-.784-1.002-1.52-.132-.208-.274-.432-.427-.67a78.29 78.29 0 0 0-2.542-3.772Z" stroke="#11E5B3"/></svg>