<svg width="296" height="80" fill="none" xmlns="http://www.w3.org/2000/svg"><g opacity=".2"><path d="M0 2.4A2.4 2.4 0 0 1 2.4 0h290.336a2.4 2.4 0 0 1 2.29 3.116l-23.5 75.2a2.4 2.4 0 0 1-2.29 1.684H2.4A2.4 2.4 0 0 1 0 77.6V2.4Z" fill="url(#a)"/><path d="M.5 2.4C.5 1.35 1.35.5 2.4.5h290.336a1.9 1.9 0 0 1 1.813 2.467l-23.5 75.2a1.9 1.9 0 0 1-1.813 1.333H2.4a1.9 1.9 0 0 1-1.9-1.9V2.4Z" stroke="url(#b)"/></g><defs><linearGradient id="a" x1="-23.022" y1="76.034" x2="264.766" y2="132.737" gradientUnits="userSpaceOnUse"><stop stop-color="#CD51FC" stop-opacity="0"/><stop offset="1" stop-color="#CC51FA"/></linearGradient><linearGradient id="b" x1="284.958" y1="55.5" x2=".356" y2="55.5" gradientUnits="userSpaceOnUse"><stop stop-color="#CF52FE"/><stop offset="1" stop-color="#CF52FE" stop-opacity="0"/></linearGradient></defs></svg>