<svg width="50" height="37" fill="none" xmlns="http://www.w3.org/2000/svg"><path d="M5.964 6.81v-.001l-4.001-5.63 7.383.132 8.894.158 6.303 7.89a817.151 817.151 0 0 1 4.775 6.03c.634.81 1.161 1.489 1.543 1.988l.379.5c-.043.082-.096.18-.16.293-.285.5-.736 1.201-1.325 2.061-1.176 1.715-2.863 3.996-4.775 6.427L18.29 35.16H2.049l1.123-1.496-.8-.6.8.6c1.285-1.713 4.225-5.748 6.535-8.97l4.199-5.857.433-.605-.455-.589-1.398-1.81c-.755-.979-3.688-5.034-6.522-9.024Zm25.502 2.043-1.743-2.358 4.51.118 6.1.16 4.281 5.248a105.531 105.531 0 0 1 3.208 4.119c.413.563.74 1.031.961 1.374.046.07.085.134.12.19l-.063.107c-.182.305-.454.724-.799 1.23a109.844 109.844 0 0 1-2.627 3.654 134.944 134.944 0 0 1-2.947 3.815c-.895 1.111-1.594 1.918-1.948 2.247-.01.002-.104.05-.357.113-.31.076-.752.147-1.33.207-1.156.12-2.765.185-4.79.185H29.72l1.765-2.387c1.62-2.19 3.676-4.977 4.57-6.195l1.624-2.212.435-.592-.435-.591-1.624-2.212c-.894-1.218-2.96-4.017-4.589-6.22Z" stroke="#11E5B3" stroke-width="2"/><mask id="a" style="mask-type:alpha" maskUnits="userSpaceOnUse" x="-1" y="0" width="51" height="37"><path fill-rule="evenodd" clip-rule="evenodd" d="M5.148 7.388c2.831 3.985 5.777 8.06 6.546 9.056l1.399 1.81-4.199 5.857c-2.309 3.22-5.244 7.25-6.522 8.952L.047 36.16h18.729l6.99-8.884c3.844-4.885 6.8-9.198 6.571-9.584-.23-.385-3.385-4.416-7.013-8.957L18.728.478 9.364.31 0 .145l5.148 7.243Zm25.514 2.06c1.63 2.203 3.694 5 4.587 6.217l1.624 2.212-1.624 2.211c-.893 1.217-2.95 4.003-4.568 6.193l-2.944 3.98h6.304c4.082 0 6.592-.26 7.12-.736C42.815 28.029 50.038 18.35 50 17.682c-.023-.38-2.097-3.211-4.611-6.293l-4.571-5.603-6.56-.172L27.7 5.44l2.963 4.006Z" fill="#11E5B3"/></mask><g mask="url(#a)"><path fill="#11E5B3" d="M.02-29.868 79.837-11.07l-8.02 34.083L-8 4.215z"/></g></svg>