<svg width="42" height="42" fill="none" xmlns="http://www.w3.org/2000/svg"><path fill-rule="evenodd" clip-rule="evenodd" d="M34 1c-1.174.382-2.558 1.854-3 3-.301.78-.248 2.184 0 3 .372 1.225 1.82 1.543 3 2 .78.301 2.184.248 3 0 1.225-.372 1.544-.819 2-2 .301-.78.248-2.184 0-3-.372-1.225-.818-2.54-2-3-.75-.292-2.236-.249-3 0ZM16 4c-.564.278-1.141 1.247-1 2 .05.266.17.151 1 1l1 1-1 1c-1.043 1.058-1 1.413-1 2 0 .976.956 1.196 2 1 .266-.05 1.153-.17 2-1l1-1 1 1c.847.83.734.95 1 1 1.044.196 2-.024 2-1 0-.587.043-.942-1-2l-1-1 1-1c.83-.849.95-.734 1-1 .196-1.045-1.024-2-2-2-.587 0 .058-.045-1 1l-1 1-1-1c-.554-.547-1.864-.948-2-1-.36-.137-.663-.166-1 0ZM2 13c-.564.278-1.141.247-1 1 .05.267.17 1.151 1 2l1 1-1 1c-1.043 1.058-1 1.413-1 2 0 .977.956 1.196 2 1 .266-.05.153-.17 1-1l1-1 1 1c.847.83 1.734.95 2 1 1.044.196 2-.023 2-1 0-.587-.957-.942-2-2l-1-1 1-1c.83-.849 1.95-1.733 2-2 .196-1.045-1.024-2-2-2-.587 0-.942.955-2 2l-1 1-1-1c-.554-.547-.864-.948-1-1-.36-.137-.663-.166-1 0Zm33 0c-.372.19-4.836 3.654-5 4-.317.67-.656 1.558 0 2 .286.193.445 1 2 1h2c-.134 1.052-1.28 2.372-2 3-.509.443-1.304.89-2 1-.367.058-3.716 0-9 0-7.933.001-8.321-.164-9 0-2.165.522-4.104 1.98-5 4-.424.955.002 1.572 0 3v2H6c-.593.276-1.605.376-2 1-.861 1.358.095 3.599 1 5 .437.677.16 1.584 1 2 .66.326.888 0 2 0 1.105 0 1.34.32 2 0 .829-.401 1.554-1.31 2-2 .945-1.463.958-3.565 0-5-.412-.617-1.424-.778-2-1v-2c.034-.916-.146-.573 0-1 .453-1.328 1.651-2.513 3-3h9c9.612-.052 8.79-.514 10-1 1.44-.579 3.22-1.605 4-3 .505-.902.998-2.161 1-3h1c1.556 0 1.714-.807 2-1 .657-.443 1.319-1.328 1-2-.18-.378-4.678-3.879-5-4-.361-.136-.69-.16-1 0Zm-8 20c-.564.278-.141.247 0 1 .05.267.17 1.151 1 2l1 1-1 1c-1.043 1.058-1 1.413-1 2 0 .977.956 1.196 2 1 .266-.05.153-.17 1-1l1-1 1 1c.847.83.734.95 1 1 1.044.196 2-.023 2-1 0-.587.043-.942-1-2l-1-1 1-1c.83-.849.95-1.733 1-2 .196-1.045-.024-2-1-2-.587 0-.942.955-2 2l-1 1-1-1c-.554-.547-.864-.948-1-1-.36-.137-1.663-.166-2 0Z" fill="url(#a)"/><defs><linearGradient id="a" x1="41.083" y1="-25.981" x2="14.045" y2="46.917" gradientUnits="userSpaceOnUse"><stop stop-color="#fff"/><stop offset="1" stop-color="#fff" stop-opacity="0"/></linearGradient></defs></svg>