<svg width="270" height="80" fill="none" xmlns="http://www.w3.org/2000/svg"><g opacity=".2"><path d="M-5 2.4A2.4 2.4 0 0 1-2.6 0h269.336a2.4 2.4 0 0 1 2.29 3.116l-23.5 75.2a2.4 2.4 0 0 1-2.29 1.684H-2.6A2.4 2.4 0 0 1-5 77.6V2.4Z" fill="url(#a)"/><path d="M-4.5 2.4c0-1.05.85-1.9 1.9-1.9h269.336a1.9 1.9 0 0 1 1.813 2.467l-23.5 75.2a1.9 1.9 0 0 1-1.813 1.333H-2.6a1.9 1.9 0 0 1-1.9-1.9V2.4Z" stroke="url(#b)"/></g><defs><linearGradient id="a" x1="-26.389" y1="76.034" x2="242.356" y2="125.228" gradientUnits="userSpaceOnUse"><stop stop-color="#CD51FC" stop-opacity="0"/><stop offset="1" stop-color="#CC51FA"/></linearGradient><linearGradient id="b" x1="259.741" y1="55.5" x2="-4.669" y2="55.5" gradientUnits="userSpaceOnUse"><stop stop-color="#CF52FE"/><stop offset="1" stop-color="#CF52FE" stop-opacity="0"/></linearGradient></defs></svg>