<svg width="40" height="41" fill="none" xmlns="http://www.w3.org/2000/svg"><path fill-rule="evenodd" clip-rule="evenodd" d="M2 1c-.931.34-1.558 1.098-2 2v6c.494 1.01 1.994 1.896 3 2v20c-1.006.104-2.506.99-3 2v6c.344.703 1.297 1.656 2 2h6c1.01-.493 1.896-1.995 2-3h20c.104 1.005.99 2.507 2 3h6c.703-.344 1.656-1.297 2-2v-6c-.493-1.01-1.994-1.896-3-2V11c1.006-.104 2.507-.99 3-2V3c-.344-.703-1.297-1.657-2-2h-6c-1.01.493-1.896 1.994-2 3H10c-.104-1.006-.99-2.507-2-3H5C2.76.982 2.387.859 2 1Zm28 7c.062.597.518 1.518 1 2s1.403.938 2 1v20c-.597.061-1.518.518-2 1s-.938 1.403-1 2H10c-.062-.597-.518-1.518-1-2s-1.402-.939-2-1V11c.598-.062 1.518-.518 2-1s.938-1.403 1-2h20Zm-17 5c-.46.216-.785.527-1 1-.147.323 0 .162 0 2 0 1.951-.187 1.599 0 2 .21.449.516.91 1 1 .708.133 1.669-.346 2-1 .156-.309 0-.077 0-1v-1h3v10h-1c-1.101 0-.564-.404-1 0-.727.674-.766 2.368 0 3-.15-.042.167.137 0 0 .363.1 7.637.1 8 0 1.195-.332.921-2.146 0-3-.436-.404.101 0-1 0h-1V16h3v1c0 .923-.156.691 0 1 .627 1.239 2.389 1.248 3 0v-5c-.177-.289-.681.161-1 0H13Z" fill="url(#a)"/><defs><linearGradient id="a" x1="40" y1="-25.658" x2="13.241" y2="46.809" gradientUnits="userSpaceOnUse"><stop stop-color="#fff"/><stop offset="1" stop-color="#fff" stop-opacity="0"/></linearGradient></defs></svg>