<svg width="321" height="80" fill="none" xmlns="http://www.w3.org/2000/svg"><g opacity=".2"><path d="M0 2.4A2.4 2.4 0 0 1 2.4 0h315.296a2.4 2.4 0 0 1 2.283 3.142l-24.44 75.2A2.4 2.4 0 0 1 293.256 80H2.4A2.4 2.4 0 0 1 0 77.6V2.4Z" fill="url(#a)"/><path d="M.5 2.4C.5 1.35 1.35.5 2.4.5h315.296a1.9 1.9 0 0 1 1.807 2.487l-24.44 75.2a1.9 1.9 0 0 1-1.807 1.313H2.4a1.9 1.9 0 0 1-1.9-1.9V2.4Z" stroke="url(#b)"/></g><defs><linearGradient id="a" x1="-24.967" y1="76.034" x2="285.088" y2="142.284" gradientUnits="userSpaceOnUse"><stop stop-color="#CD51FC" stop-opacity="0"/><stop offset="1" stop-color="#CC51FA"/></linearGradient><linearGradient id="b" x1="309.025" y1="55.5" x2=".386" y2="55.5" gradientUnits="userSpaceOnUse"><stop stop-color="#CF52FE"/><stop offset="1" stop-color="#CF52FE" stop-opacity="0"/></linearGradient></defs></svg>